<mxfile host="app.diagrams.net" modified="2022-08-05T03:38:20.384Z" agent="5.0 (Windows NT 10.0; WOW64) AppleWebKit/537.36 (KHTML, like Gecko) Chrome/103.0.0.0 Safari/537.36" etag="wAiTPlGfUAizC3tZTmkl" version="20.2.2" type="github">
  <diagram id="C5RBs43oDa-KdzZeNtuy" name="Page-1">
    <mxGraphModel dx="1662" dy="762" grid="1" gridSize="10" guides="1" tooltips="1" connect="1" arrows="1" fold="1" page="1" pageScale="1" pageWidth="827" pageHeight="1169" math="0" shadow="0">
      <root>
        <mxCell id="WIyWlLk6GJQsqaUBKTNV-0" />
        <mxCell id="WIyWlLk6GJQsqaUBKTNV-1" parent="WIyWlLk6GJQsqaUBKTNV-0" />
        <mxCell id="GYbOey55k-a12WFkSZu4-2" value="" style="edgeStyle=orthogonalEdgeStyle;rounded=0;orthogonalLoop=1;jettySize=auto;html=1;" edge="1" parent="WIyWlLk6GJQsqaUBKTNV-1" source="GYbOey55k-a12WFkSZu4-0" target="GYbOey55k-a12WFkSZu4-1">
          <mxGeometry relative="1" as="geometry" />
        </mxCell>
        <mxCell id="GYbOey55k-a12WFkSZu4-0" value="提交试卷" style="ellipse;whiteSpace=wrap;html=1;" vertex="1" parent="WIyWlLk6GJQsqaUBKTNV-1">
          <mxGeometry x="90" y="70" width="120" height="70" as="geometry" />
        </mxCell>
        <mxCell id="GYbOey55k-a12WFkSZu4-7" value="" style="edgeStyle=orthogonalEdgeStyle;rounded=0;orthogonalLoop=1;jettySize=auto;html=1;" edge="1" parent="WIyWlLk6GJQsqaUBKTNV-1" source="GYbOey55k-a12WFkSZu4-1" target="GYbOey55k-a12WFkSZu4-6">
          <mxGeometry relative="1" as="geometry" />
        </mxCell>
        <mxCell id="GYbOey55k-a12WFkSZu4-1" value="verify" style="rhombus;whiteSpace=wrap;html=1;" vertex="1" parent="WIyWlLk6GJQsqaUBKTNV-1">
          <mxGeometry x="80" y="210" width="140" height="60" as="geometry" />
        </mxCell>
        <mxCell id="GYbOey55k-a12WFkSZu4-9" value="" style="edgeStyle=orthogonalEdgeStyle;rounded=0;orthogonalLoop=1;jettySize=auto;html=1;" edge="1" parent="WIyWlLk6GJQsqaUBKTNV-1" source="GYbOey55k-a12WFkSZu4-6" target="GYbOey55k-a12WFkSZu4-8">
          <mxGeometry relative="1" as="geometry" />
        </mxCell>
        <mxCell id="GYbOey55k-a12WFkSZu4-15" style="edgeStyle=orthogonalEdgeStyle;rounded=0;orthogonalLoop=1;jettySize=auto;html=1;entryX=1;entryY=0.5;entryDx=0;entryDy=0;" edge="1" parent="WIyWlLk6GJQsqaUBKTNV-1" source="GYbOey55k-a12WFkSZu4-6" target="GYbOey55k-a12WFkSZu4-11">
          <mxGeometry relative="1" as="geometry">
            <mxPoint x="430" y="530" as="targetPoint" />
            <Array as="points">
              <mxPoint x="380" y="380" />
              <mxPoint x="380" y="660" />
            </Array>
          </mxGeometry>
        </mxCell>
        <mxCell id="GYbOey55k-a12WFkSZu4-6" value="是否存在异步提交&lt;br&gt;的试题答案任务" style="rhombus;whiteSpace=wrap;html=1;" vertex="1" parent="WIyWlLk6GJQsqaUBKTNV-1">
          <mxGeometry x="80" y="350" width="140" height="60" as="geometry" />
        </mxCell>
        <mxCell id="GYbOey55k-a12WFkSZu4-12" value="" style="edgeStyle=orthogonalEdgeStyle;rounded=0;orthogonalLoop=1;jettySize=auto;html=1;" edge="1" parent="WIyWlLk6GJQsqaUBKTNV-1" source="GYbOey55k-a12WFkSZu4-8" target="GYbOey55k-a12WFkSZu4-11">
          <mxGeometry relative="1" as="geometry" />
        </mxCell>
        <mxCell id="GYbOey55k-a12WFkSZu4-8" value="同步处理提交答案任务" style="whiteSpace=wrap;html=1;" vertex="1" parent="WIyWlLk6GJQsqaUBKTNV-1">
          <mxGeometry x="90" y="490" width="120" height="60" as="geometry" />
        </mxCell>
        <mxCell id="GYbOey55k-a12WFkSZu4-10" value="存在" style="text;html=1;align=center;verticalAlign=middle;resizable=0;points=[];autosize=1;strokeColor=none;fillColor=none;" vertex="1" parent="WIyWlLk6GJQsqaUBKTNV-1">
          <mxGeometry x="135" y="425" width="50" height="30" as="geometry" />
        </mxCell>
        <mxCell id="GYbOey55k-a12WFkSZu4-14" value="" style="edgeStyle=orthogonalEdgeStyle;rounded=0;orthogonalLoop=1;jettySize=auto;html=1;" edge="1" parent="WIyWlLk6GJQsqaUBKTNV-1" source="GYbOey55k-a12WFkSZu4-11" target="GYbOey55k-a12WFkSZu4-13">
          <mxGeometry relative="1" as="geometry" />
        </mxCell>
        <mxCell id="GYbOey55k-a12WFkSZu4-11" value="填充未回答的题" style="whiteSpace=wrap;html=1;" vertex="1" parent="WIyWlLk6GJQsqaUBKTNV-1">
          <mxGeometry x="90" y="630" width="120" height="60" as="geometry" />
        </mxCell>
        <mxCell id="GYbOey55k-a12WFkSZu4-18" value="" style="edgeStyle=orthogonalEdgeStyle;rounded=0;orthogonalLoop=1;jettySize=auto;html=1;" edge="1" parent="WIyWlLk6GJQsqaUBKTNV-1" source="GYbOey55k-a12WFkSZu4-13" target="GYbOey55k-a12WFkSZu4-17">
          <mxGeometry relative="1" as="geometry" />
        </mxCell>
        <mxCell id="GYbOey55k-a12WFkSZu4-13" value="计算得分" style="whiteSpace=wrap;html=1;" vertex="1" parent="WIyWlLk6GJQsqaUBKTNV-1">
          <mxGeometry x="90" y="770" width="120" height="60" as="geometry" />
        </mxCell>
        <mxCell id="GYbOey55k-a12WFkSZu4-16" value="不存在" style="text;html=1;align=center;verticalAlign=middle;resizable=0;points=[];autosize=1;strokeColor=none;fillColor=none;" vertex="1" parent="WIyWlLk6GJQsqaUBKTNV-1">
          <mxGeometry x="340" y="485" width="60" height="30" as="geometry" />
        </mxCell>
        <mxCell id="GYbOey55k-a12WFkSZu4-17" value="交卷成功" style="ellipse;whiteSpace=wrap;html=1;" vertex="1" parent="WIyWlLk6GJQsqaUBKTNV-1">
          <mxGeometry x="290" y="770" width="120" height="60" as="geometry" />
        </mxCell>
      </root>
    </mxGraphModel>
  </diagram>
</mxfile>
